<svg width="24" height="24" viewBox="0 0 24 24" fill="none" xmlns="http://www.w3.org/2000/svg">
<path d="M9.87691 10.8646V5.18499H10.8335M10.8335 5.18499V10.8646C9.9541 15.9329 9.38525 18.3281 8.2627 20.9684M10.8335 5.18499V3.03271H12.0591M12.0591 3.03271H13.2847C13.3046 3.03271 13.3114 3.9389 13.3111 5.18499M12.0591 3.03271V1M15.7957 20.9684C14.4487 17.2176 13.9436 14.9722 13.2847 10.8646C13.2963 9.34159 13.3107 6.93 13.3111 5.18499M14.2413 10.8646L14.1217 5.18499H13.3111" stroke="black" stroke-width="0.5"/>
<path d="M12.6281 13.7332H11.4922V11.5211C11.9818 8.71896 12.2344 8.51996 12.6281 11.5211V13.7332Z" stroke="black" stroke-width="0.5"/>
<path d="M1.44727 22.9976H22.6114V21.0246H13.4044M13.4044 21.0246H13.225V15.8831C12.3201 15.3684 11.7741 15.3316 10.714 15.8831V21.0246H11.1923V17.1386C11.8721 16.584 12.2388 16.5764 12.8663 17.1386V21.0246H13.4044Z" stroke="black" stroke-width="0.5"/>
<path d="M10.774 20.9673H1.3877V23" stroke="black" stroke-width="0.5"/>
<path d="M4.31777 20.9722V20.3743M2.58398 20.9722V20.3743M2.58398 20.3743V12.363L3.54055 13.0207L4.31777 12.4228V13.499M2.58398 20.3743H4.31777M4.31777 20.3743V13.499M4.31777 13.499C6.29069 13.499 7.24726 13.9772 9.27998 14.5751M4.37755 15.6512H5.81241C7.06791 15.8306 7.74567 15.8267 8.80169 16.1893" stroke="black" stroke-width="0.5"/>
<path d="M19.8609 20.9722V20.3743M21.5947 20.9722V20.3743M21.5947 20.3743V12.363L20.6382 13.0207L19.8609 12.4228V13.499M21.5947 20.3743H19.8609M19.8609 20.3743V13.499M19.8609 13.499C17.888 13.499 16.9314 13.9772 14.8987 14.5751M19.8012 15.6512H18.3663C17.1108 15.8306 16.433 15.8267 15.377 16.1893" stroke="black" stroke-width="0.5"/>
<path d="M17.8881 21.0312C15.4347 17.2206 14.7146 14.9877 14.2412 10.8079" stroke="black" stroke-width="0.5"/>
<path d="M6.23101 21.0312C8.68445 17.2206 9.40457 14.9877 9.87793 10.8079" stroke="black" stroke-width="0.5"/>
</svg>
